<svg
  enable-background="new 0 0 100 100"
  version="1.1"
  viewBox="0 0 100 125"
  xml:space="preserve"
  xmlns="http://www.w3.org/2000/svg"
>
  <path d="m71.1 35c0.6 17.2-8.3 35.5-20 44.9s-29.7 15.8-34 16.7c-1.1 0.2-5.2 1.4-5.7 0s1-2.2 1.9-2.7c14.6-8.4 29.4-19 37.3-34.2 3.3-6.3 5.7-12.4 6.3-19.8s0.1-17.4-5.1-23.9-14.4-9.6-22.6-8.4c-8.6 1.3-15 8.6-15.1 17.4 4.2-3.4 10.4-3.3 14.5 0.2 3.7 3.1 5 8.4 3.2 12.8-1.6 4-5.4 6.7-9.7 7.1-4.2 0.3-8.4-1.8-10.6-5.5-1.2-2-3.3-8.5-1.8-15.3s2.6-9.8 8.5-15.5c7.1-6.6 21.1-7.8 31.8-4.4 5.2 1.7 10 4.6 13.7 8.7 3.8 4.3 5.8 9.5 6.7 15.1 0.3 2.2 0.6 4.5 0.7 6.8zm19.6-16.9c0-3.1-2.5-5.7-5.7-5.7s-5.7 2.5-5.7 5.7 2.5 5.7 5.7 5.7 5.7-2.6 5.7-5.7zm0 28.4c0-3.1-2.5-5.7-5.7-5.7s-5.7 2.5-5.7 5.7c0 3.1 2.5 5.7 5.7 5.7s5.7-2.6 5.7-5.7z" />
</svg>